inDegrees=no
num_controls=7
num_derivatives=13
num_iterations=197
num_multipliers=7
num_parameters=0
num_slacks=7
num_states=26
objective=0.545107
objective_accelerations=0.042767
objective_balance=0.003997
objective_effort=0.041586
objective_height=0.447292
objective_ligament=0.009465
solver_duration=2101.395813
status=Solve_Succeeded
success=true
DataType=double
version=3
OpenSimVersion=4.5
endheader
time	/jointset/ground_pelvis/pelvis_tilt/value	/jointset/ground_pelvis/pelvis_tx/value	/jointset/ground_pelvis/pelvis_ty/value	/jointset/hip_r/hip_flexion_r/value	/jointset/hip_r/hip_adduction_r/value	/jointset/hip_r/hip_rotation_r/value	/jointset/back/lumbar_extension/value	/jointset/patellofemoral_r/patellar_flexion_r/value	/jointset/knee_r/knee_flexion_r/value	/jointset/knee_r/knee_adduction_r/value	/jointset/knee_r/knee_rotation_r/value	/jointset/ankle_r/ankle_angle_r/value	/jointset/subtalar_r/subtalar_angle_r/value	/jointset/ground_pelvis/pelvis_tilt/speed	/jointset/ground_pelvis/pelvis_tx/speed	/jointset/ground_pelvis/pelvis_ty/speed	/jointset/hip_r/hip_flexion_r/speed	/jointset/hip_r/hip_adduction_r/speed	/jointset/hip_r/hip_rotation_r/speed	/jointset/back/lumbar_extension/speed	/jointset/patellofemoral_r/patellar_flexion_r/speed	/jointset/knee_r/knee_flexion_r/speed	/jointset/knee_r/knee_adduction_r/speed	/jointset/knee_r/knee_rotation_r/speed	/jointset/ankle_r/ankle_angle_r/speed	/jointset/subtalar_r/subtalar_angle_r/speed	/forceset/tau_hip_flexion_r	/forceset/tau_hip_adduction_r	/forceset/tau_hip_rotation_r	/forceset/tau_knee_flexion_r	/forceset/tau_ankle_angle_r	/forceset/tau_subtalar_angle_r	/forceset/tau_lumbar_extension	lambda_cid13_p0	lambda_cid14_p0	lambda_cid14_p1	lambda_cid14_p2	lambda_cid14_p3	lambda_cid14_p4	lambda_cid14_p5	/jointset/ground_pelvis/pelvis_tilt/accel	/jointset/ground_pelvis/pelvis_tx/accel	/jointset/ground_pelvis/pelvis_ty/accel	/jointset/hip_r/hip_flexion_r/accel	/jointset/hip_r/hip_adduction_r/accel	/jointset/hip_r/hip_rotation_r/accel	/jointset/back/lumbar_extension/accel	/jointset/patellofemoral_r/patellar_flexion_r/accel	/jointset/knee_r/knee_flexion_r/accel	/jointset/knee_r/knee_adduction_r/accel	/jointset/knee_r/knee_rotation_r/accel	/jointset/ankle_r/ankle_angle_r/accel	/jointset/subtalar_r/subtalar_angle_r/accel	gamma_cid13_p0	gamma_cid14_p0	gamma_cid14_p1	gamma_cid14_p2	gamma_cid14_p3	gamma_cid14_p4	gamma_cid14_p5
1	-0.4218816998411589	-0.0558421768498701	0.6958598971504056	1.509183311299251	-0.2305163973625593	-0.06145358986106347	-0.4363268065391709	1.166687598545052	1.166687598545936	-0.02855359174894614	0.1745274621104434	0.2667019466353753	0.0557366905090661	-0.0006996967417466856	0.002906617547248255	0.01370194441589052	-0.0375514722987324	0.001270752604830419	-0.009609403044090137	-8.527396102599458e-05	-0.04619213050420754	-0.04619213050420483	0.001306277281823552	2.768743937111927e-05	-0.009285563343874727	-0.0008296681529187953	-0.3551896060163801	-0.001957462563144577	0.01225404350921911	-0.3897177458984638	0.06801970553605988	0.008072703488510873	0.3406870844003449	-2.757323251754211	-26.64137242488701	0.4320581605990853	-1.425983432975527	12.51954582322653	-788.0203081741076	62.13280299607302	1.824203442194377	0.2519496837110268	1.494578020122974	-5.473712089212762	0.06330922100051453	-0.7369880343934971	-0.01729543374499726	-4.322045241182813	-4.322045241182701	0.3572874292668178	0.009737077103320804	-0.8202636898863569	-0.1412304007369291	4.071630139091556e-10	7.045670545803156e-10	7.439511721688601e-09	6.084223276770849e-09	-2.817142010705605e-10	-2.306826499166613e-09	5.7500316354466e-09
1.01	-0.4217983080092839	-0.05580058537768721	0.69607146252249	1.50853524323485	-0.2305004134169891	-0.06158593239369623	-0.4363277689814924	1.166009742450574	1.166009742451417	-0.0285223472916639	0.174527775072851	0.266567948068902	0.05572143316434473	0.01737224622967955	0.005409352618359391	0.02860614878148932	-0.09204728967284083	0.001927245093120109	-0.01685479483500361	-0.0001169586287884309	-0.08938171866212613	-0.08938171866212472	0.004946801122912685	3.249913438261135e-05	-0.01752631213544539	-0.002223752702638883	-0.3548273305396359	-0.001966152199253774	0.01226318544022722	-0.3895462821453203	0.06807880785416447	0.008062519047427014	0.3403914406846533	-2.783133991747878	-26.60591834745288	0.4363124052511492	-1.429482506274438	12.52491741330264	-787.7131264441326	62.12880533883047	1.797817470121161	0.2490864075073377	1.487593526600558	-5.435288732548557	0.06700286990732192	-0.7176689869686462	0.002433397717446933	-4.31781025677396	-4.317810256774251	0.368064967130478	-0.00450523659610092	-0.8278051190398272	-0.138786686035565	5.640422276730333e-10	1.670441624079115e-09	1.450461772365876e-08	1.093573373498004e-08	-1.837748625999155e-09	-4.652608010191658e-09	1.072286595742565e-08
1.02	-0.4215343711985931	-0.05573403635705413	0.6964319203145949	1.507342662562494	-0.2304778278251016	-0.06179059969134918	-0.4363293405942622	1.164899911543777	1.164899911544595	-0.0284545715748521	0.1745280644617494	0.2663511770854636	0.05569217713333705	0.03540929902128553	0.007898127237285668	0.04348042841998914	-0.1464539938884991	0.002591081867975355	-0.02407435604705352	-0.0002071080561718436	-0.1325870929671479	-0.1325870929671483	0.008612529188021661	2.297273754786554e-05	-0.0258400467369119	-0.003629405410199672	-0.354465055062922	-0.001974841835370065	0.01227232737128755	-0.3893748183921735	0.06813791017227201	0.008052334606333464	0.3400957969689315	-2.825661089835686	-26.57904740833397	0.4413487666270989	-1.435716332068484	12.54117276269872	-787.5422835658234	62.13780045891635	1.817225406230302	0.2491575932740674	1.488593074703181	-5.455889457522715	0.0647780783136237	-0.7318219186207886	-0.02898838566910429	-4.325202470603444	-4.325202470603442	0.3623282740707881	0.006869458734075856	-0.8348608518655073	-0.1435440323050661	7.680588941758711e-10	1.722600141955003e-09	2.116085577156455e-08	1.585979199960134e-08	-1.426747523058198e-09	-7.648068402959254e-09	1.508201646926229e-08
1.03	-0.4210902810584346	-0.05564257263985607	0.6969409576108749	1.505606416072533	-0.230448586651474	-0.06206728893846392	-0.4363315622618364	1.163357955862771	1.163357955862745	-0.02834993064295233	0.1745282002457146	0.2660509946754867	0.05564880703886819	0.05339807800461698	0.01040194054638748	0.05832066383240502	-0.2007844397377559	0.003256888920103341	-0.03125451449079843	-0.0001919553214216437	-0.1758061414887674	-0.1758061414887663	0.01232752807678201	2.166533642318302e-06	-0.03419952580880047	-0.005045893465843616	-0.354302166966082	-0.00197112325739021	0.01229245683429912	-0.3889928995997972	0.06821092049489239	0.008055499953713423	0.3400932727693088	-2.885262904320881	-26.5442980455902	0.456903315924019	-1.447443093092599	12.43803295898867	-787.4170401127275	62.14687762418415	1.788107077259365	0.2520916548432762	1.480781575749415	-5.419992128403097	0.06744702414058318	-0.7097671421217712	0.02355762464811773	-4.320570976837035	-4.320570976836855	0.377870427310908	-0.006853695337993705	-0.8369558678419983	-0.1408862898434154	9.72556555094413e-10	1.765435026651059e-09	2.781292169749008e-08	2.078459054796153e-08	-9.956746290165196e-10	-1.065015817207116e-08	1.94349049014036e-08
